<?xml version="1.0" encoding="UTF-8"?>
<svg width="14px" height="11px" viewBox="0 0 14 11" version="1.1" xmlns="http://www.w3.org/2000/svg" xmlns:xlink="http://www.w3.org/1999/xlink">
    <!-- Generator: Sketch 43.2 (39069) - http://www.bohemiancoding.com/sketch -->
    <title></title>
    <desc>Created with Sketch.</desc>
    <defs></defs>
    <g id="Index-Pages---Desktop" stroke="none" stroke-width="1" fill="none" fill-rule="evenodd">
        <g id="About-Copy" transform="translate(-49.000000, -2357.000000)" fill="#828182">
            <g id="Group-7" transform="translate(0.000000, 2316.000000)">
                <g id="Group-3" transform="translate(42.000000, 33.000000)">
                    <path d="M20.0000155,17.7499997 L20.0000155,11.7499925 C19.8359528,11.9374928 19.6562651,12.109368 19.4609524,12.2656182 C18.3437635,13.1249942 17.2187622,13.9999952 16.1328234,14.9062463 C15.5468852,15.3984344 14.8203218,15.9999976 14.0078209,15.9999976 L13.9921958,15.9999976 C13.1796949,15.9999976 12.4531315,15.3984344 11.8671933,14.9062463 C10.7812545,13.9999952 9.65625317,13.1249942 8.53906433,12.2656182 C8.3437516,12.109368 8.16406389,11.9374928 8.00000119,11.7499925 L8.00000119,17.7499997 C8.00000119,17.8828124 8.11718883,18 8.25000149,18 L19.7500152,18 C19.8828279,18 20.0000155,17.8828124 20.0000155,17.7499997 Z M20.0000155,9.53905241 C20.0000155,9.34373968 20.0468906,8.99998927 19.7500152,8.99998927 L8.25000149,8.99998927 C8.11718883,8.99998927 8.00000119,9.11717691 8.00000119,9.24998957 C8.00000119,10.1406156 8.44531422,10.9140541 9.14844006,11.4687422 C10.1953163,12.2890557 11.2421926,13.1171817 12.2812563,13.9453077 C12.6953193,14.2812456 13.4453202,14.9999964 13.9921958,14.9999964 L14.0078209,14.9999964 C14.5546965,14.9999964 15.3046974,14.2812456 15.7187604,13.9453077 C16.7578241,13.1171817 17.8047004,12.2890557 18.8515766,11.4687422 C19.3593897,11.0703042 20.0000155,10.2031157 20.0000155,9.53905241 Z M21.0000167,9.24998957 L21.0000167,17.7499997 C21.0000167,18.4375005 20.437516,19.0000012 19.7500152,19.0000012 L8.25000149,19.0000012 C7.56250067,19.0000012 7,18.4375005 7,17.7499997 L7,9.24998957 C7,8.56248875 7.56250067,7.99998808 8.25000149,7.99998808 L19.7500152,7.99998808 C20.437516,7.99998808 21.0000167,8.56248875 21.0000167,9.24998957 Z" id=""></path>
                </g>
            </g>
        </g>
    </g>
</svg>